<svg xmlns="http://www.w3.org/2000/svg"
shape-rendering="geometricPrecision"
width="4000" height="4000" viewBox="0 0 1024 1024">
  <metadata>null</metadata>

<path d="
M 649.693 531.755
C 647.282 534.894 645.258 538.337 642.781 541.448
C 641.632 542.891 639.857 544.056 638.922 545.624
C 632.281 546.399 625.195 545.75 618.501 545.747
C 605.501 545.741 592.501 545.743 579.501 545.75
C 539.168 545.769 498.835 545.716 458.501 545.785
C 446.905 545.805 435.309 545.818 423.712 545.776
C 415.201 545.745 406.85 545.403 401.261 552.992
C 400.286 554.316 399.54 555.681 398.947 557.213
C 395.032 567.322 400.27 579.582 410.7 583.001
C 415.112 584.447 420.028 583.923 424.601 583.917
C 432.402 583.907 440.203 583.872 448.004 583.854
C 488.67 583.76 529.337 583.83 570.003 583.84
C 591.608 583.845 613.398 583.003 634.978 583.986
C 616.419 626.349 575.402 656.7 532.02 669.975
C 519.094 673.931 505.603 677.047 492.061 677.768
C 487.614 678.005 483.071 677.213 478.671 676.66
C 470.945 675.689 463.253 674.544 455.604 673.065
C 452.603 672.484 449.586 671.882 446.613 671.168
C 444.985 670.778 443.118 670.03 441.436 670.212
C 439.065 671.412 437.074 674.125 435.161 675.946
C 431.11 679.803 426.976 683.549 422.604 687.038
C 408.213 698.524 392.742 708.574 375.876 716.057
C 370.192 718.579 364.49 721.047 358.533 722.865
C 357.206 723.27 355.908 723.801 354.636 724.35
C 354.386 724.458 353.591 724.955 353.372 724.677
C 360.308 711.757 365.726 698.203 368.686 683.8
C 371.624 669.5 371.963 655.085 371.44 640.553
C 369.108 638.422 366.223 636.773 363.644 634.949
C 360.025 632.39 356.514 629.676 353.105 626.841
C 338.035 614.309 323.978 599.882 313.927 582.924
C 307.87 572.705 302.794 561.963 299.282 550.598
C 291.112 524.162 290.945 494.531 299.17 468.094
C 303.899 452.894 311.089 438.735 320.182 425.696
C 325.036 418.735 330.423 412.161 336.28 406.019
C 338.714 403.466 341.166 400.338 344.027 398.28
C 346.063 398.662 347.977 399.365 350.047 399.649
C 351.315 399.822 352.925 399.731 354.035 400.396
C 354.929 404.466 356.859 408.438 358.247 412.366
C 360.949 420.01 363.619 427.658 366.472 435.246
C 374.996 457.917 383.157 480.73 391.453 503.488
C 393.745 509.776 396.074 516.058 398.403 522.334
C 399.47 525.209 400.995 528.22 401.643 531.213
C 403.141 531.605 405.133 531.26 406.691 531.262
C 410.463 531.267 414.235 531.257 418.006 531.256
C 429.839 531.253 441.672 531.253 453.505 531.279
C 492.672 531.365 531.84 531.261 571.007 531.242
C 588.507 531.233 606.007 531.24 623.507 531.249
C 629.341 531.251 635.174 531.254 641.008 531.248
C 643.31 531.246 645.613 531.243 647.914 531.213
C 648.402 531.206 649.957 530.998 649.693 531.755 Z"
opacity="1" fill="rgb(16,55,104)" fill-rule="evenodd" />
<path d="
M 339.421 376.598
C 339.638 374.571 340.351 372.586 341.392 370.844
C 342.525 368.947 344.041 367.245 345.877 366.002
C 355.976 359.164 368.862 368.755 367.819 380.014
C 367.615 382.219 366.981 384.412 365.785 386.291
C 359.557 396.073 343.719 394.157 340.11 383.086
C 339.433 381.007 339.189 378.772 339.421 376.598 Z"
opacity="1" fill="rgb(200,143,56)" fill-rule="evenodd" />
<path d="
M 370.033 404.813
C 376.701 408.193 383.181 412.073 389.731 415.7
C 408.608 426.153 427.432 436.789 446.486 446.917
C 453.093 450.43 459.543 454.238 466.112 457.82
C 467.674 458.672 469.189 459.607 470.76 460.444
C 471.25 460.706 472.185 461.44 472.744 461.331
C 473.508 458.57 475.151 455.766 476.304 453.131
C 478.828 447.362 481.265 441.55 483.755 435.767
C 491.868 416.93 499.799 398.005 508.036 379.222
C 512.804 368.351 517.407 357.391 522.028 346.455
C 523.065 344.001 523.913 341.041 525.397 338.824
C 526.2 337.625 527.816 337.345 528.939 338.252
C 529.991 339.465 530.403 341.377 531.029 342.84
C 532.346 345.915 533.768 348.944 535.089 352.018
C 539.03 361.188 543.272 370.225 546.987 379.49
C 554.248 397.604 562.234 415.485 569.874 433.449
C 572.563 439.772 575.206 446.115 577.877 452.447
C 579.109 455.368 580.841 458.384 581.579 461.472
C 582.166 461.522 582.858 460.891 583.385 460.622
C 584.775 459.915 586.138 459.154 587.499 458.391
C 592.434 455.621 597.369 452.815 602.345 450.119
C 621.907 439.521 641.205 428.426 660.649 417.615
C 666.612 414.3 672.571 410.979 678.556 407.702
C 680.098 406.858 681.683 405.945 683.322 405.304
C 683.821 405.109 684.594 404.637 685.112 404.786
C 685.077 405.89 684.264 406.78 683.824 407.788
C 679.617 416.751 676.672 426.487 673.182 435.751
C 665.986 454.855 659.104 474.13 651.444 493.055
C 648.201 501.069 645.555 509.319 642.241 517.306
C 640.48 517.984 637.77 517.582 635.901 517.581
C 631.27 517.58 626.639 517.597 622.008 517.597
C 606.508 517.597 591.007 517.64 575.506 517.678
C 537.839 517.77 500.17 517.698 462.502 517.716
C 445.442 517.725 428.22 517.029 411.18 517.658
C 408.863 511.887 406.906 505.952 404.78 500.106
C 398.943 484.058 392.878 468.087 386.951 452.072
C 383.155 441.812 379.495 431.511 375.827 421.205
C 373.909 415.814 371.41 410.352 370.033 404.813 Z"
opacity="1" fill="rgb(202,144,54)" fill-rule="evenodd" />
<path d="
M 373.323 389.487
C 374.789 386.567 375.61 383.748 375.735 380.458
C 375.801 378.738 375.291 376.813 375.604 375.149
C 384.171 369.426 393.838 364.983 403.256 360.834
C 427.756 350.042 453.682 343.059 480.301 340.059
C 490.389 338.922 500.459 338.922 510.57 338.353
C 509.035 343.856 506.15 349.206 503.966 354.482
C 500.046 363.953 495.858 373.309 491.902 382.768
C 489.143 389.363 486.322 395.927 483.485 402.487
C 482.198 405.463 481.22 409.3 479.313 411.902
C 477.333 410.813 475.703 408.926 474.018 407.442
C 470.761 404.573 467.52 401.678 464.223 398.856
C 461.766 396.754 459.338 394.622 456.902 392.495
C 455.744 391.485 454.142 390.366 453.3 389.082
C 453.985 386.553 454.558 384.27 453.908 381.626
C 451.35 371.227 436.833 369.663 432.835 379.971
C 432.055 381.98 432.023 384.441 432.375 386.544
C 432.952 389.993 435.22 391.389 437.124 393.991
C 436.886 396.082 435.616 398.301 434.846 400.261
C 433.103 404.7 431.35 409.173 429.431 413.537
C 428.628 415.363 428.013 419.07 426.545 420.396
C 417.295 416.084 408.384 410.569 399.481 405.576
C 390.689 400.646 381.582 396.077 373.089 390.657
C 373.129 389.857 373.052 390.248 373.323 389.487 Z"
opacity="1" fill="rgb(15,54,102)" fill-rule="evenodd" />
<path d="
M 410.862 561.067
C 412.449 554.268 418.545 555.006 424.124 555.044
C 436.415 555.126 448.713 554.975 461.004 554.955
C 507.671 554.883 554.338 554.876 601.004 554.808
C 609.171 554.796 617.338 554.766 625.504 554.756
C 629.278 554.751 633.892 554.029 637.556 555.037
C 641.569 556.14 643.512 560.181 643.479 564.063
C 643.426 570.35 637.6 571.622 632.52 571.532
C 619.346 571.3 606.179 571.532 593.004 571.561
C 546.005 571.664 499.004 571.585 452.005 571.585
C 443.798 571.585 435.591 571.637 427.384 571.647
C 423.767 571.651 419.251 572.4 415.752 571.357
C 411.435 570.07 409.924 565.084 410.862 561.067 Z"
opacity="1" fill="rgb(200,142,54)" fill-rule="evenodd" />
<path d="
M 435.969 424.566
C 438.666 418.493 440.896 412.178 443.393 406.018
C 444.513 403.255 445.416 400.294 446.9 397.708
C 449.197 398.208 451.91 401.533 453.651 403.087
C 458.447 407.369 463.27 411.669 468.22 415.772
C 469.916 417.178 471.554 418.655 473.2 420.118
C 473.744 420.6 474.733 421.174 474.983 421.866
C 474.327 424.787 472.702 427.681 471.523 430.431
C 469.808 434.433 468.231 438.556 466.333 442.446
C 465.618 442.323 464.74 441.58 464.077 441.251
C 461.911 440.174 459.851 438.898 457.72 437.759
C 452.566 435.005 447.427 432.196 442.328 429.341
C 440.215 428.159 437.395 427.167 435.684 425.439
C 435.885 424.821 435.79 425.111 435.969 424.566 Z"
opacity="1" fill="rgb(16,53,100)" fill-rule="evenodd" />
<path d="
M 512.946 313.596
C 513.146 311.686 513.768 309.86 514.722 308.2
C 515.718 306.467 517 305.025 518.564 303.781
C 528.646 295.768 543.458 305.108 542.185 317.439
C 541.968 319.534 541.288 321.611 540.267 323.446
C 535.828 331.426 524.871 332.848 518.071 326.971
C 514.286 323.7 512.426 318.553 512.946 313.596 Z"
opacity="1" fill="rgb(201,144,57)" fill-rule="evenodd" />
<path d="
M 638.922 545.624
C 639.857 544.056 641.632 542.891 642.781 541.448
C 645.258 538.337 647.282 534.894 649.693 531.755
C 650.186 531.467 650.914 531.508 651.32 531.248
C 651.68 531.017 652.042 529.746 652.201 529.34
C 652.936 527.453 653.671 525.565 654.405 523.678
C 656.959 517.116 659.298 510.455 661.955 503.935
C 669.461 485.517 676.216 466.624 682.926 447.899
C 685.996 439.333 689.62 430.956 692.526 422.331
C 693.701 422.165 694.891 424.659 695.455 425.513
C 697.66 428.853 700.153 431.979 702.216 435.42
C 711.436 450.798 717.89 467.116 720.978 484.809
C 722.525 493.672 723.102 502.553 722.856 511.545
C 721.482 561.69 692.604 606.089 652.481 634.725
C 629.659 651.012 603.172 663.863 575.849 670.49
C 566.795 672.686 557.715 674.267 548.588 676.081
C 545.459 676.703 542.318 676.915 539.191 677.407
C 538.197 677.563 537.224 677.843 536.226 677.983
C 535.94 678.023 535.617 678.067 535.326 678.07
C 535.08 678.072 534.392 678.039 534.606 677.918
C 539.069 675.39 544.503 674.485 549.294 672.706
C 558.106 669.433 566.95 665.588 575.147 660.975
C 600.176 646.889 622.337 627.625 636.992 602.678
C 639.718 598.038 642.068 593.245 644.127 588.273
C 645.125 585.864 645.685 583.153 646.832 580.834
C 651.394 577.476 654.852 573.277 655.745 567.469
C 657.312 557.275 650.095 545.027 638.922 545.624 Z"
opacity="1" fill="rgb(202,143,54)" fill-rule="evenodd" />
<path d="
M 546.564 341.385
C 549.966 341.371 553.552 342.243 556.894 342.835
C 564.097 344.112 571.259 345.708 578.318 347.622
C 604.153 354.626 629.947 365.474 651.723 381.241
C 658.019 385.8 665.364 390.473 670.385 396.489
C 667.106 398.847 663.055 400.585 659.496 402.514
C 653.504 405.76 647.608 409.178 641.65 412.484
C 637.456 414.812 632.962 416.879 628.958 419.508
C 627.172 417.779 626.239 413.796 625.29 411.511
C 622.85 405.633 619.194 399.615 617.71 393.418
C 619.548 391.563 621.517 390.066 622.183 387.397
C 623.191 383.364 622.534 378.744 619.505 375.705
C 613.753 369.933 603.947 372.711 601.215 380.127
C 600.111 383.124 601.072 386.021 601.348 389.012
C 601.181 389.69 600.226 390.256 599.715 390.689
C 598.156 392.011 596.566 393.32 595.089 394.735
C 589.001 400.569 582.637 406.554 576.069 411.837
C 575.076 411.453 574.316 408.331 573.832 407.317
C 571.704 402.864 569.804 398.256 567.933 393.691
C 562.918 381.458 557.606 369.329 552.377 357.19
C 550.17 352.067 548.323 346.735 545.872 341.728
C 546.103 341.614 546.333 341.499 546.564 341.385 Z"
opacity="1" fill="rgb(202,143,54)" fill-rule="evenodd" />
<path d="
M 580.355 422.026
C 585.766 416.311 592.186 411.417 598.033 406.152
C 600.074 404.313 602.181 402.541 604.202 400.683
C 605.205 399.761 606.274 398.47 607.55 397.948
C 609.277 400.203 610.321 403.017 611.453 405.602
C 613.312 409.846 615.18 414.098 617.09 418.321
C 617.817 419.928 618.503 421.557 619.242 423.158
C 619.501 423.719 620.112 424.655 619.838 425.274
C 616.897 426.45 614.083 428.387 611.32 429.939
C 606.706 432.531 602.092 435.129 597.463 437.692
C 594.77 439.183 591.626 441.691 588.639 442.445
C 585.314 436.223 582.501 429.053 580.179 422.392
C 580.238 422.27 580.297 422.148 580.355 422.026 Z"
opacity="1" fill="rgb(17,54,101)" fill-rule="evenodd" />
<path d="
M 686.409 375.073
C 686.972 372.909 688.064 370.71 689.496 368.989
C 690.692 367.552 692.189 366.265 693.859 365.414
C 704.695 359.89 717.276 370.818 714.088 382.285
C 710.712 394.426 693.228 396.266 687.535 384.939
C 686.777 383.431 686.269 381.768 686.143 380.082
C 686.021 378.441 685.992 376.676 686.409 375.073 Z"
opacity="1" fill="rgb(202,143,57)" fill-rule="evenodd" />

</svg>