<svg xmlns="http://www.w3.org/2000/svg" viewBox="0 0 512 512">
  <defs>
    <style>
      .blue { fill: #0f365b; }
      .gold { fill: #c49a45; }
      .white { fill: #ffffff; }
    </style>
  </defs>
  
  <!-- Right Gold Bubble -->
  <path class="gold" d="M380,160 C435.2,160 480,204.8 480,260 C480,315.2 435.2,360 380,360 C368.5,360 357.5,358 347.2,354.4 C319.5,380.6 282.8,396 242.5,396 C238.5,396 234.5,395.8 230.6,395.4 C268.4,349.5 292,290.5 292,226 C292,202.8 288.5,180.4 282.1,159.2 C309.8,142.6 343.2,132 379.5,132 C379.7,132 379.8,132 380,132 Z"/>
  
  <!-- Left Blue Bubble -->
  <path class="blue" d="M242.5,132 C141.7,132 60,205.7 60,296.5 C60,344.8 83.5,388.2 120.5,417.6 L105,468 L158.4,444.2 C184.2,455.2 212.6,461 242.5,461 C343.3,461 425,387.3 425,296.5 C425,205.7 343.3,132 242.5,132 Z"/>
  
  <!-- Crown -->
  <path class="gold" d="M120,210 L155,290 L242.5,240 L330,290 L365,210 L300,210 L242.5,170 L185,210 Z"/>
  <rect class="gold" x="140" y="310" width="205" height="15" rx="7.5"/>
  <circle class="gold" cx="120" cy="200" r="12"/>
  <circle class="gold" cx="242.5" cy="155" r="12"/>
  <circle class="gold" cx="365" cy="200" r="12"/>
  
  <!-- Crown White Outlines -->
  <path class="white" d="M135,225 L160,280 L242.5,245 L325,280 L350,225 L300,225 L242.5,190 L185,225 Z" fill="none" stroke="#ffffff" stroke-width="6" stroke-linejoin="round"/>
  <rect class="white" x="140" y="310" width="205" height="15" rx="7.5" fill="none" stroke="#ffffff" stroke-width="4"/>
</svg>
